# xmcd
# 
# Track frame offsets:
#     150
#     28145
#     39630
#     53492
#     65532
#     83467
#     102007
#     114277
#     126405
#     138877
#     165160
#     191847
#     207872
#     219947
#     232750
#     244852
# 
# Disc length: 3555
# 
# Revision: 6
# Processed by: cddbd v1.5.2PL0 Copyright (c) Steve Scherf et al.
# Submitted via: fre:ac v1.0.17
# 
DISCID=ca0de110
DTITLE=Various Artist - The Blues Story
DYEAR=2000
DGENRE=Classic Blues
TTITLE0=B.B. King - Payin' The Cost To Be The Boss
TTITLE1=Muddy Waters - Goin' Home
TTITLE2=Howlin' Wolf - Highway 49
TTITLE3=John Lee Hooker - Crawling King Snake
TTITLE4=Big Joe Turner - Roll 'em Pete
TTITLE5=Memphis Slim - Gamblers Blues
TTITLE6=Elmore James - Mean Mistreatin' Mama
TTITLE7=Jimmy Reed - My Baby's So Sweet
TTITLE8=Howlin' Wolf - Cause Of It All
TTITLE9=B.B. King - Guess Who
TTITLE10=Otis Rush - It's Hard For Me To Believe Baby
TTITLE11=Little Walter - Walter's Blues
TTITLE12=Jimmy Reed - Honest I Do
TTITLE13=Muddy Waters - Forty Days and Forty Nights
TTITLE14=John Lee Hooker - I'm In The Mood
TTITLE15=B.B. King - The Thrill Is Gone
EXTD=
EXTT0=
EXTT1=
EXTT2=
EXTT3=
EXTT4=
EXTT5=
EXTT6=
EXTT7=
EXTT8=
EXTT9=
EXTT10=
EXTT11=
EXTT12=
EXTT13=
EXTT14=
EXTT15=
PLAYORDER=
